<svg width="166" height="87" viewBox="0 0 166 87" fill="none" xmlns="http://www.w3.org/2000/svg">
<path d="M4.84059 64.7478C5.76344 64.7478 6.58181 64.9612 7.2783 65.3802C7.97479 65.7833 8.53198 66.3445 8.94987 67.0559C9.36776 67.7752 9.57671 68.6051 9.57671 69.5537C9.57671 70.4864 9.36776 71.3163 8.94987 72.0514C8.53198 72.7944 7.95737 73.3794 7.24347 73.822C6.54699 74.2488 5.75473 74.4544 4.87542 74.4544C4.40529 74.4544 3.96998 74.3911 3.55209 74.2647C3.1342 74.1224 2.75113 73.9406 2.40288 73.7272C2.05464 73.4979 1.74122 73.2371 1.46262 72.9367C1.20144 72.6205 0.992494 72.2886 0.835786 71.925L1.18403 71.7036V73.7588C1.18403 73.909 1.12309 74.0354 1.00991 74.1382C0.888023 74.2488 0.748726 74.2963 0.592015 74.2963C0.400482 74.2963 0.252476 74.2488 0.139298 74.1382C0.0435299 74.0354 0 73.909 0 73.7588V61.3648C0 61.1988 0.0435299 61.0644 0.139298 60.9537C0.252476 60.851 0.400482 60.7957 0.592015 60.7957C0.748726 60.7957 0.888023 60.851 1.00991 60.9537C1.12309 61.0644 1.18403 61.1988 1.18403 61.3648V67.4669L0.905434 67.3088C1.04473 66.9294 1.23627 66.5974 1.49745 66.2971C1.74993 65.9809 2.05464 65.7122 2.40288 65.475C2.75113 65.2458 3.1342 65.064 3.55209 64.9375C3.96998 64.8111 4.39658 64.7478 4.84059 64.7478ZM4.77094 65.7596C4.02222 65.7596 3.37797 65.9335 2.82078 66.2655C2.281 66.5816 1.8544 67.0243 1.53227 67.5934C1.22756 68.1625 1.07956 68.8186 1.07956 69.5537C1.07956 70.2967 1.22756 70.9606 1.53227 71.5456C1.8544 72.1384 2.281 72.6047 2.82078 72.9367C3.37797 73.2766 4.02222 73.4426 4.77094 73.4426C5.46743 73.4426 6.07686 73.2766 6.61664 72.9367C7.17383 72.581 7.60042 72.1068 7.90514 71.5139C8.22726 70.929 8.39268 70.273 8.39268 69.5537C8.39268 68.8186 8.22726 68.1625 7.90514 67.5934C7.60042 67.0243 7.17383 66.5816 6.61664 66.2655C6.07686 65.9335 5.46743 65.7596 4.77094 65.7596Z" fill="#F5B2C5"/>
<path d="M20.1774 74.4542C19.1327 74.4542 18.2098 74.2566 17.4263 73.8535C16.634 73.4583 16.0159 72.8971 15.5806 72.1778C15.1366 71.4664 14.9189 70.6206 14.9189 69.6484C14.9189 68.6208 15.1366 67.7434 15.5806 67.0241C16.042 66.289 16.6253 65.7278 17.3218 65.3484C18.0357 64.9532 18.8019 64.7477 19.6202 64.7477C20.1948 64.7477 20.7694 64.8425 21.3266 65.0322C21.8838 65.2219 22.3801 65.5065 22.8241 65.8859C23.2594 66.2495 23.6076 66.6922 23.8688 67.2138C24.1213 67.7434 24.2606 68.3679 24.2867 69.0793C24.2867 69.2295 24.2171 69.3559 24.0778 69.4587C23.9559 69.5693 23.8166 69.6168 23.6599 69.6168H15.6154L15.3717 68.605H23.2768L23.033 68.8263V68.4785C22.9808 67.9094 22.7893 67.4273 22.441 67.0241C22.0928 66.6289 21.6575 66.3207 21.1525 66.1072C20.665 65.9017 20.1513 65.7911 19.6202 65.7911C19.2198 65.7911 18.8019 65.8701 18.3666 66.0124C17.9487 66.1626 17.5656 66.3918 17.2174 66.708C16.8865 67.0083 16.6253 67.3956 16.4164 67.8778C16.2074 68.3679 16.103 68.937 16.103 69.5851C16.103 70.3044 16.251 70.9605 16.5557 71.5454C16.8778 72.1145 17.3392 72.5809 17.9487 72.9366C18.5755 73.2765 19.3068 73.4425 20.1426 73.4425C20.604 73.4425 21.0219 73.3792 21.3963 73.2528C21.7619 73.1263 22.0928 72.9682 22.3714 72.7785C22.6674 72.573 22.9111 72.3596 23.1027 72.1462C23.242 72.0197 23.3813 71.9564 23.5206 71.9564C23.6599 71.9564 23.773 72.0118 23.8688 72.1145C23.982 72.2252 24.0429 72.328 24.0429 72.4307C24.0429 72.5809 23.9733 72.7074 23.834 72.8101C23.4335 73.2528 22.9111 73.648 22.2669 73.98C21.6139 74.2961 20.9174 74.4542 20.1774 74.4542Z" fill="#F5B2C5"/>
<path d="M37.9304 65.0005C38.0871 65.0005 38.2264 65.0638 38.3483 65.1902C38.4615 65.3009 38.5224 65.4274 38.5224 65.5697V70.6917C38.5224 71.8931 38.1394 72.81 37.3732 73.4424C36.6245 74.0747 35.632 74.3909 34.3783 74.3909C33.0985 74.3909 32.0886 74.0747 31.3486 73.4424C30.626 72.81 30.269 71.8931 30.269 70.6917V65.5697C30.269 65.4274 30.3126 65.3009 30.4083 65.1902C30.5215 65.0638 30.6695 65.0005 30.8611 65.0005C31.0178 65.0005 31.1571 65.0638 31.279 65.1902C31.3921 65.3009 31.4531 65.4274 31.4531 65.5697V70.6917C31.4531 71.577 31.7055 72.2567 32.2192 72.7152C32.7242 73.1578 33.4468 73.3791 34.3783 73.3791C35.2838 73.3791 35.9889 73.1578 36.5026 72.7152C37.0337 72.2567 37.3036 71.577 37.3036 70.6917V65.5697C37.3036 65.4274 37.3471 65.3009 37.4429 65.1902C37.556 65.0638 37.7215 65.0005 37.9304 65.0005Z" fill="#F5B2C5"/>
<path d="M46.3959 73.7272C46.3959 73.8773 46.3262 74.0038 46.1869 74.1066C46.065 74.2172 45.9257 74.2647 45.769 74.2647C45.6036 74.2647 45.4643 74.2172 45.3511 74.1066C45.2292 74.0038 45.177 73.8773 45.177 73.7272V61.3331C45.177 61.1909 45.2292 61.0644 45.3511 60.9537C45.4643 60.851 45.6036 60.7957 45.769 60.7957C45.9518 60.7957 46.0998 60.851 46.2217 60.9537C46.3349 61.0644 46.3959 61.1909 46.3959 61.3331V73.7272Z" fill="#F5B2C5"/>
<path d="M61.4687 64.969C61.6254 64.969 61.7647 65.0243 61.8866 65.1271C61.9998 65.2378 62.0608 65.3721 62.0608 65.5381V73.727C62.0608 73.8772 61.9998 74.0037 61.8866 74.1064C61.7647 74.2171 61.6254 74.2645 61.4687 74.2645C61.2772 74.2645 61.1292 74.2171 61.016 74.1064C60.9203 74.0037 60.8767 73.8772 60.8767 73.727V71.5454L61.1901 71.419C61.1901 71.7588 61.0857 72.1066 60.8767 72.4623C60.6852 72.8022 60.4066 73.1263 60.0409 73.4425C59.6666 73.7428 59.24 73.98 58.7524 74.1697C58.2649 74.3594 57.7425 74.4542 57.1853 74.4542C56.2799 74.4542 55.4615 74.2487 54.7476 73.8219C54.025 73.3792 53.4591 72.7943 53.0412 72.0513C52.6408 71.3162 52.4492 70.4862 52.4492 69.5535C52.4492 68.605 52.6582 67.7751 53.0761 67.0558C53.494 66.3444 54.0511 65.7832 54.7476 65.38C55.4615 64.9611 56.2799 64.7477 57.1853 64.7477C57.7425 64.7477 58.2736 64.8425 58.7873 65.0322C59.2922 65.2061 59.7362 65.4433 60.1106 65.7594C60.4762 66.0756 60.7722 66.4471 60.9812 66.8661C61.1901 67.2692 61.2946 67.6802 61.2946 68.0991L60.8767 67.8462V65.5381C60.8767 65.3721 60.9203 65.2378 61.016 65.1271C61.1292 65.0243 61.2772 64.969 61.4687 64.969ZM57.2898 73.4425C58.0037 73.4425 58.6305 73.2765 59.1703 72.9366C59.7275 72.6046 60.1541 72.1382 60.4588 71.5454C60.781 70.9605 60.9464 70.2965 60.9464 69.5535C60.9464 68.8421 60.781 68.194 60.4588 67.6249C60.1541 67.0558 59.7275 66.6052 59.1703 66.2653C58.6305 65.9333 58.0037 65.7594 57.2898 65.7594C56.5933 65.7594 55.9665 65.9333 55.4093 66.2653C54.8521 66.5815 54.4081 67.0241 54.086 67.5933C53.7813 68.1624 53.6332 68.8184 53.6332 69.5535C53.6332 70.2965 53.7813 70.9605 54.086 71.5454C54.4081 72.1382 54.8521 72.6046 55.4093 72.9366C55.9665 73.2765 56.5933 73.4425 57.2898 73.4425Z" fill="#F5B2C5"/>
<path d="M73.2881 64.8743C74.1238 64.8743 74.7942 65.0482 75.3079 65.3802C75.8389 65.6963 76.222 66.139 76.4571 66.7081C76.7095 67.2614 76.8401 67.8779 76.8401 68.5735V73.7272C76.8401 73.8773 76.7792 74.0038 76.666 74.1066C76.5441 74.2172 76.4048 74.2647 76.2481 74.2647C76.0566 74.2647 75.9086 74.2172 75.7954 74.1066C75.6996 74.0038 75.6561 73.8773 75.6561 73.7272V68.5735C75.6561 68.0676 75.5603 67.6171 75.3775 67.214C75.2121 66.8188 74.9422 66.5026 74.5766 66.2655C74.2022 66.0362 73.7059 65.9177 73.0791 65.9177C72.5219 65.9177 71.9821 66.0362 71.4772 66.2655C70.9896 66.5026 70.5805 66.8188 70.2583 67.214C69.9536 67.6171 69.8056 68.0676 69.8056 68.5735V73.7272C69.8056 73.8773 69.7447 74.0038 69.6315 74.1066C69.5096 74.2172 69.3703 74.2647 69.2136 74.2647C69.0221 74.2647 68.8741 74.2172 68.7609 74.1066C68.6651 74.0038 68.6216 73.8773 68.6216 73.7272V61.3331C68.6216 61.1909 68.6651 61.0644 68.7609 60.9537C68.8741 60.851 69.0221 60.7957 69.2136 60.7957C69.3703 60.7957 69.5096 60.851 69.6315 60.9537C69.7447 61.0644 69.8056 61.1909 69.8056 61.3331V67.2456L69.3529 67.8779C69.3703 67.4985 69.5009 67.1349 69.736 66.7713C69.9623 66.4156 70.267 66.0995 70.6414 65.8228C71.0071 65.5304 71.4249 65.3011 71.8951 65.1272C72.3565 64.9612 72.8179 64.8743 73.2881 64.8743Z" fill="#F5B2C5"/>
<path d="M95.9628 60.8587C96.1717 60.8587 96.3894 60.8824 96.6244 60.9219C96.8508 60.9694 97.051 61.0326 97.2164 61.1116C97.3993 61.1986 97.495 61.333 97.495 61.5227C97.495 61.6491 97.4341 61.7677 97.3209 61.8705C97.2252 61.9811 97.112 62.0285 96.9727 62.0285C96.8334 62.0285 96.6593 61.9969 96.4503 61.9337C96.2588 61.8705 96.0498 61.8388 95.8235 61.8388C95.5449 61.8388 95.3011 61.9021 95.0922 62.0285C94.9006 62.1392 94.7526 62.2973 94.6394 62.5028C94.5176 62.7162 94.4653 62.9692 94.4653 63.2616V73.727C94.4653 73.8771 94.4044 74.0036 94.2912 74.1064C94.1954 74.217 94.0561 74.2645 93.8733 74.2645C93.7079 74.2645 93.5686 74.217 93.4554 74.1064C93.3335 74.0036 93.2813 73.8771 93.2813 73.727V63.2616C93.2813 62.487 93.5251 61.8942 94.0126 61.491C94.5176 61.0721 95.1705 60.8587 95.9628 60.8587ZM96.7289 65.127C96.8856 65.127 97.0162 65.1824 97.112 65.2851C97.2252 65.3958 97.2861 65.5223 97.2861 65.6645C97.2861 65.791 97.2252 65.9096 97.112 66.0123C97.0162 66.123 96.8856 66.1704 96.7289 66.1704H91.8187C91.6532 66.1704 91.514 66.123 91.4008 66.0123C91.305 65.9096 91.2615 65.791 91.2615 65.6645C91.2615 65.4985 91.305 65.3721 91.4008 65.2851C91.514 65.1824 91.6532 65.127 91.8187 65.127H96.7289Z" fill="#F5B2C5"/>
<path d="M104.206 73.7272C104.206 73.8773 104.136 74.0038 103.997 74.1066C103.875 74.2172 103.736 74.2647 103.579 74.2647C103.413 74.2647 103.274 74.2172 103.161 74.1066C103.039 74.0038 102.987 73.8773 102.987 73.7272V61.3331C102.987 61.1909 103.039 61.0644 103.161 60.9537C103.274 60.851 103.413 60.7957 103.579 60.7957C103.762 60.7957 103.91 60.851 104.032 60.9537C104.145 61.0644 104.206 61.1909 104.206 61.3331V73.7272Z" fill="#F5B2C5"/>
<path d="M120.428 69.6168C120.428 70.5258 120.202 71.3478 119.766 72.0829C119.322 72.8259 118.722 73.4029 117.955 73.8219C117.189 74.2487 116.319 74.4542 115.344 74.4542C114.386 74.4542 113.533 74.2487 112.767 73.8219C112 73.4029 111.382 72.8259 110.921 72.0829C110.477 71.3478 110.259 70.5258 110.259 69.6168C110.259 68.6682 110.477 67.8383 110.921 67.119C111.382 66.3839 112 65.8069 112.767 65.38C113.533 64.9611 114.386 64.7477 115.344 64.7477C116.319 64.7477 117.189 64.9611 117.955 65.38C118.722 65.8069 119.322 66.3839 119.766 67.119C120.202 67.8383 120.428 68.6682 120.428 69.6168ZM119.209 69.6168C119.209 68.8579 119.035 68.194 118.687 67.6249C118.356 67.0558 117.903 66.6052 117.329 66.2653C116.745 65.9333 116.084 65.7594 115.344 65.7594C114.621 65.7594 113.959 65.9333 113.359 66.2653C112.775 66.6052 112.314 67.0558 111.966 67.6249C111.635 68.194 111.478 68.8579 111.478 69.6168C111.478 70.3598 111.635 71.0079 111.966 71.577C112.314 72.1462 112.775 72.6046 113.359 72.9366C113.959 73.2765 114.621 73.4425 115.344 73.4425C116.084 73.4425 116.745 73.2765 117.329 72.9366C117.903 72.6046 118.356 72.1462 118.687 71.577C119.035 71.0079 119.209 70.3598 119.209 69.6168Z" fill="#F5B2C5"/>
<path d="M126.984 74.2645C126.792 74.2645 126.644 74.2171 126.531 74.1064C126.435 74.0037 126.392 73.8772 126.392 73.727V65.5697C126.392 65.4275 126.435 65.301 126.531 65.1903C126.644 65.0639 126.792 65.0006 126.984 65.0006C127.141 65.0006 127.28 65.0639 127.402 65.1903C127.515 65.301 127.576 65.4275 127.576 65.5697V68.2888L127.262 68.3521C127.306 67.9331 127.419 67.5142 127.611 67.0874C127.82 66.6684 128.081 66.2811 128.412 65.9175C128.76 65.5618 129.152 65.2773 129.596 65.0639C130.057 64.8583 130.579 64.7477 131.163 64.7477C131.415 64.7477 131.65 64.7951 131.859 64.8742C132.086 64.9611 132.208 65.1113 132.208 65.3168C132.208 65.5065 132.147 65.6567 132.033 65.7594C131.938 65.8464 131.824 65.8859 131.685 65.8859C131.546 65.8859 131.407 65.8543 131.267 65.7911C131.128 65.7278 130.936 65.6962 130.71 65.6962C130.336 65.6962 129.961 65.8069 129.596 66.0124C129.221 66.2021 128.882 66.4787 128.586 66.8344C128.281 67.1743 128.037 67.5537 127.854 67.9727C127.663 68.3758 127.576 68.7868 127.576 69.2057V73.727C127.576 73.8772 127.515 74.0037 127.402 74.1064C127.28 74.2171 127.141 74.2645 126.984 74.2645Z" fill="#F5B2C5"/>
<path d="M142.136 74.4542C141.091 74.4542 140.168 74.2566 139.385 73.8535C138.593 73.4583 137.974 72.8971 137.539 72.1778C137.095 71.4664 136.877 70.6206 136.877 69.6484C136.877 68.6208 137.095 67.7434 137.539 67.0241C138.001 66.289 138.584 65.7278 139.28 65.3484C139.994 64.9532 140.76 64.7477 141.579 64.7477C142.153 64.7477 142.728 64.8425 143.285 65.0322C143.842 65.2219 144.339 65.5065 144.783 65.8859C145.218 66.2495 145.566 66.6922 145.827 67.2138C146.08 67.7434 146.219 68.3679 146.245 69.0793C146.245 69.2295 146.176 69.3559 146.036 69.4587C145.914 69.5693 145.775 69.6168 145.618 69.6168H137.574L137.33 68.605H145.235L144.992 68.8263V68.4785C144.939 67.9094 144.748 67.4273 144.4 67.0241C144.051 66.6289 143.616 66.3207 143.111 66.1072C142.623 65.9017 142.11 65.7911 141.579 65.7911C141.178 65.7911 140.76 65.8701 140.325 66.0124C139.907 66.1626 139.524 66.3918 139.176 66.708C138.845 67.0083 138.584 67.3956 138.375 67.8778C138.166 68.3679 138.061 68.937 138.061 69.5851C138.061 70.3044 138.209 70.9605 138.514 71.5454C138.836 72.1145 139.298 72.5809 139.907 72.9366C140.534 73.2765 141.265 73.4425 142.101 73.4425C142.563 73.4425 142.98 73.3792 143.355 73.2528C143.72 73.1263 144.051 72.9682 144.33 72.7785C144.626 72.573 144.87 72.3596 145.061 72.1462C145.2 72.0197 145.34 71.9564 145.479 71.9564C145.618 71.9564 145.732 72.0118 145.827 72.1145C145.94 72.2252 146.001 72.328 146.001 72.4307C146.001 72.5809 145.932 72.7074 145.792 72.8101C145.392 73.2528 144.87 73.648 144.225 73.98C143.572 74.2961 142.876 74.4542 142.136 74.4542Z" fill="#F5B2C5"/>
<path d="M151.635 72.7785C151.513 72.6362 151.461 72.4939 151.461 72.3675C151.479 72.2252 151.574 72.1066 151.74 72.0197C151.827 71.9406 151.949 71.909 152.088 71.9248C152.227 71.9248 152.367 71.9802 152.506 72.0829C152.854 72.5256 153.281 72.8734 153.794 73.1263C154.299 73.3792 154.918 73.5057 155.64 73.5057C156.006 73.5057 156.38 73.4583 156.754 73.3476C157.12 73.2211 157.425 73.0472 157.66 72.8101C157.912 72.5809 158.043 72.2884 158.043 71.9248C158.043 71.5454 157.912 71.2451 157.66 71.0079C157.425 70.7787 157.111 70.5969 156.72 70.4704C156.345 70.3282 155.954 70.2096 155.536 70.1226C155.066 69.9962 154.613 69.8697 154.177 69.7432C153.76 69.601 153.385 69.4192 153.063 69.2057C152.732 69.0002 152.471 68.7473 152.262 68.4469C152.071 68.1307 151.984 67.7671 151.984 67.3403C151.984 66.8186 152.132 66.3602 152.436 65.9808C152.732 65.5855 153.15 65.2773 153.69 65.0639C154.221 64.8583 154.813 64.7477 155.466 64.7477C155.814 64.7477 156.171 64.7951 156.546 64.8742C156.937 64.9374 157.32 65.0639 157.695 65.2536C158.06 65.4433 158.4 65.6883 158.705 65.9808C158.818 66.1072 158.879 66.2495 158.879 66.3918C158.879 66.5183 158.818 66.6368 158.705 66.7396C158.583 66.8265 158.461 66.8661 158.322 66.8661C158.182 66.8661 158.06 66.8186 157.973 66.708C157.643 66.376 157.259 66.123 156.824 65.9491C156.38 65.7832 155.901 65.6962 155.396 65.6962C154.996 65.6962 154.63 65.7594 154.282 65.8859C153.951 65.9966 153.673 66.1626 153.446 66.3918C153.211 66.6289 153.098 66.9293 153.098 67.3087C153.141 67.6723 153.281 67.9568 153.516 68.1624C153.768 68.3758 154.09 68.5576 154.491 68.6999C154.909 68.85 155.37 68.9844 155.884 69.1109C156.302 69.2215 156.702 69.3322 157.103 69.4587C157.495 69.5851 157.843 69.759 158.147 69.9646C158.443 70.1543 158.687 70.4072 158.879 70.7234C159.062 71.0237 159.157 71.4031 159.157 71.8616C159.157 72.3912 158.992 72.8575 158.67 73.2528C158.339 73.6322 157.904 73.9325 157.347 74.138C156.789 74.3436 156.18 74.4542 155.536 74.4542C154.787 74.4542 154.082 74.3278 153.411 74.0748C152.732 73.8219 152.14 73.395 151.635 72.7785Z" fill="#F5B2C5"/>
<path d="M165.164 74.2644C164.929 74.2644 164.755 74.2012 164.642 74.0747C164.52 73.9324 164.468 73.7585 164.468 73.5688V73.1578C164.468 72.9523 164.52 72.7942 164.642 72.6835C164.755 72.5571 164.929 72.4938 165.164 72.4938H165.304C165.53 72.4938 165.704 72.5571 165.826 72.6835C165.939 72.7942 166 72.9523 166 73.1578V73.5688C166 73.7585 165.939 73.9324 165.826 74.0747C165.704 74.2012 165.53 74.2644 165.304 74.2644H165.164Z" fill="#F5B2C5"/>
<path d="M80.8567 39.9613C80.491 39.6372 79.9861 39.4396 79.4898 39.4396C78.9849 39.4396 78.5496 39.5661 78.1926 39.8981C67.5276 49.1857 51.9611 46.0477 41.5138 40.7438C41.2962 40.0245 40.9392 39.3685 40.4343 38.7836C39.0587 37.345 36.8299 36.8233 34.9581 37.6058C34.3052 37.8034 33.8002 38.3251 33.7306 38.9812C33.5826 39.5661 33.8786 40.2222 34.4532 40.6174C35.0278 41.0047 35.672 41.4631 36.3946 41.8584C37.6222 42.5777 38.2664 43.8186 38.0575 45.1307C37.7615 46.8302 37.1869 48.4664 36.177 49.9682C35.672 50.8219 34.9581 51.5412 34.0875 52.1972C32.9383 52.9798 31.4235 53.1774 30.0566 52.6557C28.6897 52.1972 27.7495 51.0827 27.4622 49.7706C27.1749 47.8736 27.1749 45.9133 27.3925 43.953C27.4622 43.953 27.5318 43.8819 27.6102 43.8186C33.9482 38.7203 54.7732 9.67187 50.8816 2.21018C49.9413 0.510742 47.8519 -0.335023 45.832 0.12343C38.1968 1.23004 26.6699 25.9627 24.1452 40.2222C22.5606 48.9881 23.7882 54.4184 27.8191 56.4498L28.5417 56.6395C29.1947 56.7738 29.8389 56.8371 30.4919 56.8371C34.2355 56.7106 37.6918 54.8136 39.4244 51.7388C40.2863 50.4899 40.9392 49.0513 41.3658 47.6127C41.5138 46.9567 42.0884 46.3717 42.7414 46.1109C43.4553 45.7868 44.2475 45.7868 44.9005 46.0477C56.0704 50.3002 70.331 51.4779 80.7783 42.38C81.144 42.056 81.3616 41.5975 81.3616 41.2023C81.3616 40.7438 81.2136 40.2854 80.8567 39.9613ZM46.4154 3.5223C46.5547 3.5223 46.7723 3.5223 46.9203 3.5223C47.3469 3.5223 47.4253 3.65667 47.4949 3.65667C48.1392 4.89765 47.2076 10.1936 39.8597 22.1686C36.8996 26.8796 33.6609 31.393 30.1262 35.8352C29.9869 36.0329 29.6996 36.104 29.4036 35.9696C29.1947 35.8352 29.0467 35.5744 29.1163 35.3847C33.2256 20.2716 42.7414 4.04398 46.4154 3.5223Z" fill="#B20055"/>
<path d="M133.097 39.3052C132.731 38.9811 132.304 38.7835 131.799 38.7835C131.295 38.7835 130.79 38.91 130.424 39.242C121.561 46.9566 98.8643 43.4945 90.7241 41.0047C89.07 40.5462 89.1396 39.9613 90.1495 39.0444C95.2687 33.8117 105.429 22.8168 104.053 18.3034C103.766 17.1968 102.756 16.3431 101.537 16.019C100.24 15.6871 98.8643 15.8847 97.7151 16.5407C92.6743 19.0938 88.417 30.0176 85.7529 38.2619L85.6833 38.3883C85.396 38.5859 85.248 38.91 85.1783 39.242C84.0988 39.7004 83.8115 40.4197 84.0988 43.8818C84.0988 44.0162 84.0988 44.0794 84.0204 44.1506C79.8415 59.651 76.1675 82.289 80.8514 86.2096C81.4347 86.7392 82.227 87 83.0192 87C83.4458 87 83.8811 86.9289 84.2381 86.8024C91.4467 84.5101 90.2975 67.8952 88.417 49.6441C88.2777 48.2687 88.1297 46.8934 87.9904 45.6524C87.9121 44.5379 88.6347 44.0162 89.8622 44.4114C95.4777 45.9765 101.25 46.9566 107.083 47.2886C115.371 47.8103 126.68 47.2886 133.018 41.724C133.811 41.0758 133.811 39.9613 133.097 39.3052ZM99.5869 19.4811C99.5869 19.4811 100.022 19.0227 100.449 19.2203C101.25 19.6155 96.7052 27.2037 92.6743 30.9978C87.9904 35.3847 97.6455 20.9197 99.5869 19.4811ZM83.2282 83.4668C80.5641 83.0716 83.5938 56.0545 85.1087 56.0545C86.6148 56.0545 85.9009 83.8541 83.2282 83.4668Z" fill="#B20055"/>
</svg>
